<?xml version="1.0" encoding="utf-8"?>
<!-- Generator: Adobe Illustrator 19.0.0, SVG Export Plug-In . SVG Version: 6.00 Build 0)  -->
<svg version="1.1" id="Calque_1" xmlns="http://www.w3.org/2000/svg" xmlns:xlink="http://www.w3.org/1999/xlink" x="0px" y="0px"
	 viewBox="0 0 245.8 245.8" style="enable-background:new 0 0 245.8 245.8;" xml:space="preserve">
<style type="text/css">
	.st0{fill:#0094A2;}
	.st1{fill:#024E54;}
	.st2{fill:#DEDEDE;}
</style>
<g id="XMLID_1_">
	<g id="Fond">
		<polygon class="st0" points="0,245.8 0,0 245.8,0 		"/>
		<polygon class="st1" points="0,245.8 245.8,245.8 245.8,0 		"/>
	</g>
	<g id="Texte">
		<rect x="34.3" y="93.4" class="st2" width="177.2" height="59"/>
		<g>
			<path d="M41.8,98.8l2.5,42.8h0.1l20.5-42.8h5.5l3.3,42.4h0.1l19.7-42.4h4.8l-23.2,48.1h-5L67,103.2h-0.1l-21,43.7h-5.1l-3.6-48.1
				H41.8z"/>
			<path d="M108.6,98.8l-10.2,48.1h-4.6l10.2-48.1H108.6z"/>
			<path d="M125.7,98.8l7.5,43.2l26.4-43.2h6.7L156,146.9h-4.5l9.9-43.5h-0.1l-26.6,43.5h-4.6l-7.7-44.2h-0.1l-9.1,44.2h-4.4
				l10.4-48.1H125.7z"/>
			<path d="M195.3,98.8c1.8,0,3.5,0.2,5.1,0.6c1.6,0.4,3,1,4.2,1.9c1.2,0.9,2.2,2,2.9,3.4c0.7,1.4,1,3.1,1,5.1c0,3.2-1,5.8-2.9,8
				c-1.9,2.1-4.4,3.5-7.6,4v0.1c2.6,0.3,4.6,1.4,6,3.3c1.5,1.9,2.2,4.1,2.2,6.6c0,2.8-0.5,5.2-1.6,7.1c-1.1,1.9-2.5,3.5-4.3,4.6
				c-1.8,1.2-3.8,2-6.2,2.5c-2.3,0.5-4.8,0.8-7.3,0.8h-20.7l10.4-48.1H195.3z M188,143c1.7,0,3.3-0.2,5-0.6c1.6-0.4,3.1-1,4.4-1.9
				c1.3-0.9,2.4-2,3.2-3.3c0.8-1.3,1.2-3,1.2-4.8c0-1.8-0.3-3.2-0.9-4.3c-0.6-1.1-1.5-2-2.5-2.6c-1.1-0.7-2.3-1.1-3.6-1.3
				c-1.4-0.2-2.8-0.3-4.3-0.3h-14.5l-4.2,19.2H188z M191.9,119.9c1.6,0,3.1-0.3,4.5-0.7c1.4-0.4,2.7-1,3.8-1.8
				c1.1-0.8,2-1.7,2.7-2.9c0.7-1.2,1-2.6,1-4.3c0-1.3-0.2-2.5-0.7-3.5c-0.4-1-1.1-1.8-1.9-2.4c-0.8-0.6-1.7-1-2.8-1.3
				c-1.1-0.3-2.2-0.4-3.4-0.4h-14.8l-3.7,17.2H191.9z"/>
		</g>
	</g>
</g>
</svg>
